<svg width="18" height="18" viewBox="0 0 18 18" fill="none" xmlns="http://www.w3.org/2000/svg">
<path d="M0.96959 9.53025C0.828987 9.3896 0.75 9.19887 0.75 9C0.75 8.80113 0.828987 8.6104 0.96959 8.46975L4.71959 4.71975C4.86104 4.58313 5.05049 4.50754 5.24714 4.50924C5.44379 4.51095 5.6319 4.58983 5.77095 4.72889C5.91001 4.86794 5.98889 5.05605 5.9906 5.2527C5.9923 5.44935 5.91671 5.6388 5.78009 5.78025L3.31034 8.25H16.4998C16.6988 8.25 16.8895 8.32902 17.0302 8.46967C17.1708 8.61032 17.2498 8.80109 17.2498 9C17.2498 9.19891 17.1708 9.38968 17.0302 9.53033C16.8895 9.67098 16.6988 9.75 16.4998 9.75H3.31034L5.78009 12.2197C5.85172 12.2889 5.90886 12.3717 5.94817 12.4632C5.98747 12.5547 6.00816 12.6531 6.00903 12.7527C6.00989 12.8523 5.99092 12.951 5.95321 13.0432C5.9155 13.1354 5.85981 13.2191 5.78939 13.2895C5.71897 13.36 5.63523 13.4157 5.54306 13.4534C5.45088 13.4911 5.35212 13.5101 5.25254 13.5092C5.15295 13.5083 5.05454 13.4876 4.96304 13.4483C4.87153 13.409 4.78877 13.3519 4.71959 13.2803L0.96959 9.53025Z" fill="black"/>
</svg>
