<svg width="18" height="18" viewBox="0 0 18 18" fill="none" xmlns="http://www.w3.org/2000/svg">
<path d="M17.0304 9.53025C17.171 9.3896 17.25 9.19887 17.25 9C17.25 8.80113 17.171 8.6104 17.0304 8.46975L13.2804 4.71975C13.139 4.58313 12.9495 4.50754 12.7529 4.50924C12.5562 4.51095 12.3681 4.58983 12.229 4.72889C12.09 4.86794 12.0111 5.05605 12.0094 5.2527C12.0077 5.44935 12.0833 5.6388 12.2199 5.78025L14.6897 8.25H1.50016C1.30125 8.25 1.11048 8.32902 0.96983 8.46967C0.829178 8.61032 0.75016 8.80109 0.75016 9C0.75016 9.19891 0.829178 9.38968 0.96983 9.53033C1.11048 9.67098 1.30125 9.75 1.50016 9.75H14.6897L12.2199 12.2197C12.1483 12.2889 12.0911 12.3717 12.0518 12.4632C12.0125 12.5547 11.9918 12.6531 11.991 12.7527C11.9901 12.8523 12.0091 12.951 12.0468 13.0432C12.0845 13.1354 12.1402 13.2191 12.2106 13.2895C12.281 13.36 12.3648 13.4157 12.4569 13.4534C12.5491 13.4911 12.6479 13.5101 12.7475 13.5092C12.847 13.5083 12.9455 13.4876 13.037 13.4483C13.1285 13.409 13.2112 13.3519 13.2804 13.2803L17.0304 9.53025Z" fill="black"/>
</svg>
