<svg width="27" height="27" viewBox="0 0 27 27" fill="none" xmlns="http://www.w3.org/2000/svg">
<path d="M23.125 14.875H3.875C3.51033 14.875 3.16059 14.7301 2.90273 14.4723C2.64487 14.2144 2.5 13.8647 2.5 13.5C2.5 13.1353 2.64487 12.7856 2.90273 12.5277C3.16059 12.2699 3.51033 12.125 3.875 12.125H23.125C23.4897 12.125 23.8394 12.2699 24.0973 12.5277C24.3551 12.7856 24.5 13.1353 24.5 13.5C24.5 13.8647 24.3551 14.2144 24.0973 14.4723C23.8394 14.7301 23.4897 14.875 23.125 14.875Z" fill="#333333"/>
<path d="M24.1424 9.375H2.85738C2.64195 9.37415 2.42973 9.32269 2.23784 9.22478C2.04594 9.12686 1.87974 8.98522 1.75263 8.81128C1.62552 8.63734 1.54106 8.43597 1.50606 8.2234C1.47106 8.01083 1.4865 7.79301 1.55113 7.5875C2.98113 2.98125 7.88988 -0.25 13.4999 -0.25C19.1099 -0.25 24.0186 2.98125 25.4486 7.5875C25.5153 7.79864 25.53 8.02276 25.4914 8.24079C25.4529 8.45883 25.3623 8.66433 25.2273 8.83983C25.0923 9.01533 24.9169 9.15563 24.716 9.24881C24.5152 9.34198 24.2948 9.38527 24.0736 9.375H24.1424ZM5.01613 6.625H21.9836C21.0125 5.29843 19.7319 4.2292 18.2534 3.51029C16.7748 2.79139 15.143 2.44457 13.4999 2.5C11.8567 2.44457 10.225 2.79139 8.7464 3.51029C7.26784 4.2292 5.9873 5.29843 5.01613 6.625Z" fill="#333333"/>
<path d="M19 25.875H8C6.17664 25.875 4.42795 25.1507 3.13864 23.8614C1.84933 22.572 1.125 20.8234 1.125 19C1.125 18.6353 1.26987 18.2856 1.52773 18.0277C1.78559 17.7699 2.13533 17.625 2.5 17.625H13.1013C13.4659 17.625 13.8157 17.7699 14.0735 18.0277C14.3314 18.2856 14.4763 18.6353 14.4763 19C14.4763 19.3647 14.3314 19.7144 14.0735 19.9723C13.8157 20.2301 13.4659 20.375 13.1013 20.375H4.10875C4.39322 21.1796 4.92023 21.8761 5.61715 22.3687C6.31407 22.8612 7.1466 23.1254 8 23.125H19C19.8534 23.1254 20.6859 22.8612 21.3828 22.3687C22.0798 21.8761 22.6068 21.1796 22.8912 20.375H18.6013C18.2366 20.375 17.8868 20.2301 17.629 19.9723C17.3711 19.7144 17.2263 19.3647 17.2263 19C17.2263 18.6353 17.3711 18.2856 17.629 18.0277C17.8868 17.7699 18.2366 17.625 18.6013 17.625H24.5C24.8647 17.625 25.2144 17.7699 25.4723 18.0277C25.7301 18.2856 25.875 18.6353 25.875 19C25.875 20.8234 25.1507 22.572 23.8614 23.8614C22.572 25.1507 20.8234 25.875 19 25.875Z" fill="#333333"/>
</svg>
