<svg width="52" height="52" viewBox="0 0 52 52" fill="none" xmlns="http://www.w3.org/2000/svg">
<path d="M6.5 19.5H45.5M36.8333 28.1697L15.1667 28.1667M22.3888 36.8344L15.1667 36.8333M15.1667 6.5V10.8333M36.8333 6.5V10.8333M13.4333 45.5H38.5667C40.9935 45.5 42.2071 45.5 43.134 45.0277C43.9493 44.6123 44.6123 43.9493 45.0277 43.134C45.5 42.2071 45.5 40.9935 45.5 38.5667V17.7667C45.5 15.3398 45.5 14.1263 45.0277 13.1994C44.6123 12.384 43.9493 11.7211 43.134 11.3056C42.2071 10.8333 40.9935 10.8333 38.5667 10.8333H13.4333C11.0064 10.8333 9.79299 10.8333 8.86604 11.3056C8.05066 11.7211 7.38775 12.384 6.97231 13.1994C6.5 14.1263 6.5 15.3398 6.5 17.7667V38.5667C6.5 40.9935 6.5 42.2071 6.97231 43.134C7.38775 43.9493 8.05066 44.6123 8.86604 45.0277C9.79299 45.5 11.0064 45.5 13.4333 45.5Z" stroke="black" stroke-width="4" stroke-linecap="round" stroke-linejoin="round"/>
</svg>
