<svg width="52" height="52" viewBox="0 0 52 52" fill="none" xmlns="http://www.w3.org/2000/svg">
<g clip-path="url(#clip0_14_99)">
<path d="M32.5518 47.6667C35.2669 47.6667 37.5967 47.5241 39.5432 47.0914C41.5147 46.6533 43.2235 45.8896 44.5565 44.5566C45.8894 43.2237 46.6532 41.5149 47.0913 39.5434C47.5239 37.5969 47.6665 35.2671 47.6665 32.552V26C47.6665 23.6067 45.7265 21.6667 43.3332 21.6667H25.9998C23.6065 21.6667 21.6665 23.6067 21.6665 26V43.3333C21.6665 45.7266 23.6065 47.6667 25.9998 47.6667H32.5518Z" fill="black"/>
<path d="M4.3335 32.552C4.3335 35.2671 4.47615 37.5969 4.90879 39.5434C5.34689 41.5149 6.11062 43.2237 7.44359 44.5566C8.77657 45.8896 10.4854 46.6533 12.4567 47.0914C12.6454 47.1332 12.8352 47.1727 13.0257 47.2095C15.3755 47.6634 17.3335 45.6746 17.3335 43.2813V26C17.3335 23.6067 15.3934 21.6667 13.0002 21.6667H8.66683C6.27359 21.6667 4.3335 23.6067 4.3335 26V32.552Z" fill="black"/>
<path d="M19.448 4.33333C16.7329 4.33333 14.4032 4.47599 12.4565 4.90863C10.4852 5.34673 8.77641 6.11046 7.44343 7.44343C6.11046 8.77641 5.34673 10.4852 4.90863 12.4565C4.87266 12.6184 4.83882 12.7808 4.80703 12.9436C4.34254 15.3241 6.36768 17.3333 8.79305 17.3333H43.2814C45.6747 17.3333 47.6635 15.3753 47.2096 13.0255C47.1727 12.835 47.1333 12.6453 47.0915 12.4565C46.6532 10.4852 45.8896 8.77641 44.5565 7.44343C43.2235 6.11046 41.5147 5.34673 39.5435 4.90863C37.5967 4.47599 35.2671 4.33333 32.5521 4.33333H19.448Z" fill="black"/>
</g>
<defs>
<clipPath id="clip0_14_99">
<rect width="52" height="52" fill="white"/>
</clipPath>
</defs>
</svg>
