<svg width="46" height="46" viewBox="0 0 46 46" fill="none" xmlns="http://www.w3.org/2000/svg">
<g clip-path="url(#clip0_39_2)">
<path fill-rule="evenodd" clip-rule="evenodd" d="M23.0004 30.6667C18.8006 30.6667 15.3981 27.2351 15.3981 23C15.3981 18.7649 18.8006 15.3333 23.0004 15.3333C27.2002 15.3333 30.6042 18.7649 30.6042 23C30.6042 27.2351 27.2002 30.6667 23.0004 30.6667ZM44.4793 28.4219L40.9174 26.3488C41.1167 25.2601 41.2486 24.1485 41.2486 23C41.2486 21.8531 41.1167 20.7399 40.9174 19.6512L44.4793 17.5781C45.9344 16.7317 46.4313 14.8549 45.591 13.3891L42.5504 8.07761C41.7117 6.61174 39.8502 6.10728 38.3966 6.95522L34.7979 9.0482C33.1173 7.60687 31.2068 6.42772 29.0831 5.66872V3.06667C29.0831 1.37387 27.7215 0 26.041 0H19.9598C18.2793 0 16.9177 1.37387 16.9177 3.06667V5.66872C14.794 6.42772 12.8835 7.60687 11.2029 9.0482L7.60419 6.95522C6.15059 6.10728 4.28912 6.61174 3.45039 8.07761L0.409786 13.3891C-0.430481 14.8549 0.0678503 16.7317 1.52145 17.5781L5.08339 19.6512C4.88406 20.7399 4.75219 21.8531 4.75219 23C4.75219 24.1485 4.88406 25.2601 5.08339 26.3488L1.52145 28.4219C0.0678503 29.2683 -0.430481 31.1451 0.409786 32.6109L3.45039 37.9224C4.28912 39.3883 6.15059 39.8927 7.60419 39.0448L11.2029 36.9518C12.8835 38.3931 14.794 39.5738 16.9177 40.3313V42.9333C16.9177 44.6261 18.2793 46 19.9598 46H26.041C27.7215 46 29.0831 44.6261 29.0831 42.9333V40.3313C31.2068 39.5738 33.1173 38.3931 34.7979 36.9518L38.3966 39.0448C39.8502 39.8927 41.7117 39.3883 42.5504 37.9224L45.591 32.6109C46.4313 31.1451 45.9344 29.2683 44.4793 28.4219ZM23.0004 18.4C20.4811 18.4 18.4387 20.4608 18.4387 23C18.4387 25.5407 20.4811 27.6 23.0004 27.6C25.5197 27.6 27.5621 25.5407 27.5621 23C27.5621 20.4608 25.5197 18.4 23.0004 18.4Z" fill="black"/>
</g>
<defs>
<clipPath id="clip0_39_2">
<rect width="46" height="46" fill="white"/>
</clipPath>
</defs>
</svg>
