<svg width="52" height="52" viewBox="0 0 52 52" fill="none" xmlns="http://www.w3.org/2000/svg">
<g clip-path="url(#clip0_206_88)">
<path d="M21.0936 -0.0275879V3.7033L17.4846 3.7046V-0.0270563H14.2346V3.70485H10.7246V3.69926H7.47461V3.70485V6.95485V12.8048V16.0548V48.7775V52.0275H10.7246H41.2746H44.2925H44.5246V29.7234V3.69927L37.8636 3.70057V-0.0275244H34.6136V3.70108L31.0046 3.70238V-0.0269928H27.7546V3.70289H24.3436V-0.0275006L21.0936 -0.0275879ZM10.7246 6.95533H14.2346V9.72267H17.4846V6.95533H21.0936V9.72267H24.3436V6.95533H27.7546V9.72267H31.0046V6.95533H34.6136V9.72267H37.8636V6.95533H41.2746V12.8053H10.7246V6.95533ZM10.7246 16.0553H41.2746V30.6339V48.778H10.7246V16.0553ZM14.0338 19.9881V23.2381H18.0127V19.9881H14.0338ZM21.2627 19.9881V23.2381H37.8421V19.9881H21.2627ZM14.0338 27.5281V30.7781H18.0127V27.5281H14.0338ZM21.2627 27.5281V30.7781H37.8362V27.5281H21.2627ZM14.0338 35.0681V38.3181H18.0127V35.0681H14.0338ZM21.2627 35.0681V38.3181H37.7834V35.0681H21.2627ZM14.0338 42.3481V45.5981H18.0127V42.3481H14.0338ZM21.2627 42.3481V45.5981H37.8388V42.3481H21.2627Z" fill="black"/>
</g>
<defs>
<clipPath id="clip0_206_88">
<rect width="52" height="52" fill="white"/>
</clipPath>
</defs>
</svg>
