<svg width="52" height="52" viewBox="0 0 52 52" fill="none" xmlns="http://www.w3.org/2000/svg">
<g clip-path="url(#clip0_25_320)">
<path d="M44.2761 29.2017C47.5779 29.2017 50.2551 26.5262 50.2551 23.2244C50.2551 19.9227 47.5778 17.2454 44.2761 17.2454C40.9751 17.2454 38.2979 19.9227 38.2979 23.2244C38.298 26.5262 40.9751 29.2017 44.2761 29.2017Z" fill="black"/>
<path d="M51.9315 34.9629C51.6651 33.3621 50.3419 31.1217 49.3403 30.1208C49.2083 29.9881 48.6187 29.9574 48.4594 30.0562C47.2417 30.8051 45.8113 31.2459 44.2761 31.2459C42.7426 31.2459 41.3121 30.8051 40.0942 30.0562C39.9343 29.9574 39.3454 29.9881 39.2135 30.1208C38.9335 30.4008 38.628 30.7735 38.3301 31.2057C39.136 32.7231 39.7751 34.3349 40.0058 35.7228C40.2363 37.1142 40.1615 38.4315 39.7886 39.6324C41.1128 40.1115 42.7007 40.3217 44.276 40.3217C48.3847 40.3217 52.5894 38.8971 51.9315 34.9629Z" fill="black"/>
<path d="M25.8465 26.6795C31.1975 26.6795 35.5359 22.3412 35.5359 16.9903C35.5359 11.641 31.1975 7.30261 25.8465 7.30261C20.4964 7.30261 16.1597 11.641 16.1597 16.9903C16.1597 22.3412 20.4963 26.6795 25.8465 26.6795Z" fill="black"/>
<path d="M34.051 28.1636C33.8407 27.9543 32.8859 27.9008 32.6263 28.0614C30.6512 29.2767 28.3332 29.9882 25.8465 29.9882C23.3617 29.9882 21.0426 29.2767 19.0685 28.0614C18.809 27.9007 17.8542 27.9543 17.644 28.1636C16.0168 29.789 13.8723 33.4227 13.4409 36.0132C12.3771 42.3939 19.1928 44.6976 25.8465 44.6976C32.5021 44.6976 39.3177 42.3939 38.2539 36.0132C37.8225 33.4227 35.678 29.789 34.051 28.1636Z" fill="black"/>
<path d="M7.72371 29.2017C11.0247 29.2017 13.7019 26.5262 13.7019 23.2244C13.7019 19.9227 11.0247 17.2454 7.72371 17.2454C4.42182 17.2454 1.74463 19.9227 1.74463 23.2244C1.74463 26.5262 4.42182 29.2017 7.72371 29.2017Z" fill="black"/>
<path d="M11.6893 35.7228C11.9345 34.2651 12.6262 32.5487 13.4934 30.9616C13.2517 30.6314 13.0101 30.3438 12.7871 30.1208C12.6551 29.9881 12.0663 29.9574 11.9063 30.0562C10.6885 30.8051 9.25798 31.2459 7.72377 31.2459C6.18937 31.2459 4.75795 30.8051 3.54113 30.0562C3.38188 29.9574 2.79139 29.9881 2.65946 30.1208C1.65531 31.1215 0.335509 33.3621 0.0681968 34.9629C-0.588709 38.8971 3.61517 40.3216 7.72377 40.3216C9.19003 40.3216 10.6707 40.1411 11.9345 39.7285C11.5362 38.5031 11.4519 37.1551 11.6893 35.7228Z" fill="black"/>
</g>
<defs>
<clipPath id="clip0_25_320">
<rect width="52" height="52" fill="white"/>
</clipPath>
</defs>
</svg>
