<svg width="28" height="28" viewBox="0 0 28 28" fill="none" xmlns="http://www.w3.org/2000/svg">
<path d="M24.0144 3.81429C24.0144 3.81429 24.1772 3.92913 21.6443 3.1599C19.3737 2.47062 17.2259 2.32269 17.2259 2.32269L17.077 1.26738C16.9747 0.539055 16.3784 0 15.6761 0H13.9999H12.3237C11.6223 0 11.026 0.539055 10.9228 1.26738L10.7739 2.32269C10.7739 2.32269 8.62702 2.47062 6.3564 3.1599C3.82256 3.92919 3.98537 3.81429 3.98537 3.81429C3.42077 3.97009 3.02637 4.50636 3.02637 5.11935V6.03236H14H24.9745V5.11935C24.9745 4.50636 24.58 3.97009 24.0144 3.81429Z" fill="white"/>
<path d="M4.8456 25.4148C4.97488 26.878 6.20043 27.9998 7.66972 27.9998H20.3312C21.7999 27.9998 23.026 26.878 23.1552 25.4148L24.5575 7.52051H3.44336L4.8456 25.4148ZM18.7047 11.479C18.7326 11.0195 19.1275 10.6692 19.587 10.6971C20.0465 10.725 20.3963 11.1199 20.3688 11.5795L19.5763 24.6767C19.5484 25.1362 19.1535 25.486 18.694 25.4581C18.2345 25.4302 17.8843 25.0358 17.9122 24.5763L18.7047 11.479ZM13.1667 11.5292C13.1667 11.0687 13.5398 10.6957 14.0002 10.6957C14.4606 10.6957 14.8336 11.0687 14.8336 11.5292V24.6264C14.8336 25.0869 14.4606 25.4599 14.0002 25.4599C13.5397 25.4599 13.1667 25.0868 13.1667 24.6264V11.5292ZM8.41341 10.6971C8.87295 10.6693 9.26785 11.0195 9.29574 11.479L10.0892 24.5762C10.1171 25.0357 9.76687 25.4301 9.30739 25.458C8.84785 25.4859 8.45295 25.1361 8.42506 24.6766L7.6316 11.5794C7.60366 11.1199 7.95387 10.725 8.41341 10.6971Z" fill="white"/>
</svg>
