<svg width="28" height="28" viewBox="0 0 28 28" fill="none" xmlns="http://www.w3.org/2000/svg">
<path d="M3.5 10.5H24.5M19.8333 15.1683L8.16667 15.1667M12.0555 19.8339L8.16667 19.8333M8.16667 3.5V5.83333M19.8333 3.5V5.83333M7.23333 24.5H20.7667C22.0734 24.5 22.7269 24.5 23.226 24.2457C23.665 24.022 24.022 23.665 24.2457 23.226C24.5 22.7269 24.5 22.0734 24.5 20.7667V9.56667C24.5 8.25987 24.5 7.60648 24.2457 7.10736C24.022 6.6683 23.665 6.31135 23.226 6.08765C22.7269 5.83333 22.0734 5.83333 20.7667 5.83333H7.23333C5.92655 5.83333 5.27315 5.83333 4.77402 6.08765C4.33497 6.31135 3.97802 6.6683 3.75432 7.10736C3.5 7.60648 3.5 8.25987 3.5 9.56667V20.7667C3.5 22.0734 3.5 22.7269 3.75432 23.226C3.97802 23.665 4.33497 24.022 4.77402 24.2457C5.27315 24.5 5.92654 24.5 7.23333 24.5Z" stroke="white" stroke-width="2" stroke-linecap="round" stroke-linejoin="round"/>
</svg>
