<svg width="28" height="28" viewBox="0 0 28 28" fill="none" xmlns="http://www.w3.org/2000/svg">
<g clip-path="url(#clip0_39_47)">
<path d="M28 22.1668V19.8334H25.5033C25.3983 19.4134 25.2233 19.0168 25.0133 18.6434L26.7867 16.8701L25.1417 15.2251L23.3683 16.9984C22.995 16.7768 22.5983 16.6134 22.1783 16.5084V14.0001H19.845V16.4968C19.425 16.6018 19.0283 16.7768 18.655 16.9868L16.8817 15.2134L15.2367 16.8584L17.01 18.6318C16.7883 19.0051 16.625 19.4018 16.52 19.8218H14V22.1551H16.4967C16.6017 22.5751 16.7767 22.9718 16.9867 23.3451L15.2133 25.1184L16.8583 26.7634L18.6317 24.9901C19.005 25.2118 19.4017 25.3751 19.8217 25.4801V28.0001H22.155V25.5034C22.575 25.3984 22.9717 25.2234 23.345 25.0134L25.1183 26.7868L26.7633 25.1418L24.99 23.3684C25.2117 22.9951 25.375 22.5984 25.48 22.1784H28V22.1668ZM21 23.3334C19.7167 23.3334 18.6667 22.2834 18.6667 21.0001C18.6667 19.7168 19.7167 18.6668 21 18.6668C22.2833 18.6668 23.3333 19.7168 23.3333 21.0001C23.3333 22.2834 22.2833 23.3334 21 23.3334ZM12.8333 8.6451L16.6717 12.4834L18.3167 10.8384L14.4783 7.0001L15.1667 6.31176L17.8383 8.98343L19.4833 7.33843L16.8117 4.66676L17.5 3.97843L21.3383 7.81676L22.9833 6.17176L19.145 2.33343L19.4833 1.9951L17.8383 0.350098L8.03833 10.1501C7.22167 9.63676 6.27667 9.33343 5.25 9.33343C2.35667 9.33343 0 11.6901 0 14.5834C0 17.4768 2.35667 19.8334 5.25 19.8334C8.14333 19.8334 10.5 17.4768 10.5 14.5834C10.5 13.5568 10.1967 12.6118 9.68333 11.7951L12.8333 8.6451ZM5.25 17.5001C3.64 17.5001 2.33333 16.1934 2.33333 14.5834C2.33333 12.9734 3.64 11.6668 5.25 11.6668C6.86 11.6668 8.16667 12.9734 8.16667 14.5834C8.16667 16.1934 6.86 17.5001 5.25 17.5001Z" fill="white"/>
</g>
<defs>
<clipPath id="clip0_39_47">
<rect width="28" height="28" fill="white"/>
</clipPath>
</defs>
</svg>
