<svg width="28" height="28" viewBox="0 0 28 28" fill="none" xmlns="http://www.w3.org/2000/svg">
<path d="M9.33301 12.25H18.6663" stroke="white" stroke-width="2" stroke-linecap="round"/>
<path d="M9.33301 16.3333H15.7497" stroke="white" stroke-width="2" stroke-linecap="round"/>
<path d="M19.833 3.89412C18.117 2.90146 16.1246 2.33333 13.9997 2.33333C7.55635 2.33333 2.33301 7.55667 2.33301 14C2.33301 15.8663 2.77123 17.6302 3.55038 19.1946C3.75744 19.6103 3.82635 20.0854 3.70631 20.534L3.01144 23.1311C2.70978 24.2585 3.74119 25.2898 4.86858 24.9882L7.46563 24.2934C7.91426 24.1733 8.38942 24.2423 8.80513 24.4492C10.3694 25.2285 12.1334 25.6667 13.9997 25.6667C20.4429 25.6667 25.6663 20.4433 25.6663 14C25.6663 11.875 25.0982 9.88268 24.1056 8.16666" stroke="white" stroke-width="2" stroke-linecap="round"/>
</svg>
