<svg width="28" height="28" viewBox="0 0 28 28" fill="none" xmlns="http://www.w3.org/2000/svg">
<path d="M21.0004 13.1249V14.8749H14.8754V20.9999H13.1254V14.8749H7.00044V13.1249H13.1254V6.99995H14.8754V13.1249H21.0004ZM21.4248 21.4243C17.3246 25.5246 10.6763 25.5246 6.57519 21.4243C2.47494 17.3241 2.47494 10.6758 6.57519 6.5747C10.6763 2.47445 17.3237 2.47445 21.4248 6.5747C25.5259 10.6758 25.5259 17.3241 21.4248 21.4243ZM20.1876 7.81282C16.8258 4.45107 11.2914 4.3347 7.81331 7.81282C4.40169 11.2244 4.40169 16.7754 7.81331 20.1871C11.2914 23.6652 16.8267 23.5479 20.1876 20.1871C23.5992 16.7754 23.5992 11.2244 20.1876 7.81282Z" fill="white"/>
</svg>
