<svg width="28" height="28" viewBox="0 0 28 28" fill="none" xmlns="http://www.w3.org/2000/svg">
<g clip-path="url(#clip0_14_37)">
<path d="M17.5278 25.6667C18.9898 25.6667 20.2443 25.5899 21.2924 25.3569C22.354 25.121 23.2741 24.7098 23.9919 23.992C24.7096 23.2743 25.1209 22.3542 25.3568 21.2926C25.5897 20.2445 25.6665 18.99 25.6665 17.528V14C25.6665 12.7113 24.6219 11.6667 23.3332 11.6667H13.9998C12.7111 11.6667 11.6665 12.7113 11.6665 14V23.3333C11.6665 24.622 12.7111 25.6667 13.9998 25.6667H17.5278Z" fill="white"/>
<path d="M2.3335 17.528C2.3335 18.99 2.41031 20.2445 2.64327 21.2926C2.87917 22.3542 3.29041 23.2743 4.00816 23.992C4.72592 24.7098 5.64605 25.121 6.7075 25.3569C6.80916 25.3794 6.91132 25.4007 7.01391 25.4205C8.27917 25.6649 9.3335 24.594 9.3335 23.3053V14C9.3335 12.7113 8.28883 11.6667 7.00016 11.6667H4.66683C3.37816 11.6667 2.3335 12.7113 2.3335 14V17.528Z" fill="white"/>
<path d="M10.4718 2.33334C9.00983 2.33334 7.75537 2.41015 6.70715 2.64311C5.6457 2.87901 4.72557 3.29025 4.00781 4.008C3.29006 4.72576 2.87882 5.64589 2.64292 6.70734C2.62355 6.79451 2.60533 6.88195 2.58821 6.96965C2.3381 8.25145 3.42856 9.33334 4.73453 9.33334H23.3052C24.5939 9.33334 25.6648 8.27901 25.4203 7.01375C25.4005 6.91116 25.3793 6.809 25.3568 6.70734C25.1207 5.64589 24.7096 4.72576 23.9918 4.008C23.274 3.29025 22.3539 2.87901 21.2924 2.64311C20.2442 2.41015 18.9898 2.33334 17.5278 2.33334H10.4718Z" fill="white"/>
</g>
<defs>
<clipPath id="clip0_14_37">
<rect width="28" height="28" fill="white"/>
</clipPath>
</defs>
</svg>
