<svg width="28" height="28" viewBox="0 0 28 28" fill="none" xmlns="http://www.w3.org/2000/svg">
<g clip-path="url(#clip0_205_129)">
<path d="M19.833 3.5C21.697 3.5 23.2206 4.95708 23.3271 6.79435L23.333 7V12.0751L24.0259 11.7672C24.7419 11.449 25.5687 11.9428 25.6583 12.6975L25.6663 12.8333V22.1667C25.6663 23.3968 24.7145 24.4045 23.5072 24.4936L23.333 24.5H4.66634C3.43625 24.5 2.42848 23.5482 2.33941 22.3408L2.33301 22.1667V12.8333C2.33301 12.0498 3.12008 11.4948 3.84618 11.7194L3.9735 11.7672L4.66634 12.0751V7C4.66634 5.13604 6.12342 3.6124 7.96069 3.50594L8.16634 3.5H19.833ZM19.833 5.83333H8.16634C7.52201 5.83333 6.99967 6.35567 6.99967 7V13.1122L13.9997 16.2233L20.9997 13.1122V7C20.9997 6.35567 20.4774 5.83333 19.833 5.83333ZM13.9997 9.33333C14.644 9.33333 15.1663 9.85567 15.1663 10.5C15.1663 11.0983 14.716 11.5914 14.1357 11.6588L13.9997 11.6667H11.6663C11.022 11.6667 10.4997 11.1443 10.4997 10.5C10.4997 9.9017 10.9501 9.40858 11.5303 9.34118L11.6663 9.33333H13.9997Z" fill="white"/>
</g>
<defs>
<clipPath id="clip0_205_129">
<rect width="28" height="28" fill="white"/>
</clipPath>
</defs>
</svg>
