<svg width="28" height="28" viewBox="0 0 28 28" fill="none" xmlns="http://www.w3.org/2000/svg">
<path d="M24.0144 3.81429C24.0144 3.81429 24.1772 3.92913 21.6443 3.1599C19.3737 2.47062 17.2259 2.32269 17.2259 2.32269L17.077 1.26738C16.9747 0.539055 16.3784 0 15.6761 0H13.9999H12.3237C11.6223 0 11.026 0.539055 10.9228 1.26738L10.7739 2.32269C10.7739 2.32269 8.62702 2.47062 6.3564 3.1599C3.82256 3.92919 3.98537 3.81429 3.98537 3.81429C3.42077 3.97009 3.02637 4.50636 3.02637 5.11935V6.03236H14H24.9745V5.11935C24.9745 4.50636 24.58 3.97009 24.0144 3.81429Z" fill="#EF5D39"/>
<path d="M4.8456 25.415C4.97488 26.8782 6.20043 28.0001 7.66972 28.0001H20.3312C21.7999 28.0001 23.026 26.8782 23.1552 25.415L24.5575 7.52075H3.44336L4.8456 25.415ZM18.7047 11.4792C18.7326 11.0197 19.1275 10.6694 19.587 10.6974C20.0465 10.7253 20.3963 11.1202 20.3688 11.5797L19.5763 24.677C19.5484 25.1365 19.1535 25.4863 18.694 25.4584C18.2345 25.4305 17.8843 25.0361 17.9122 24.5765L18.7047 11.4792ZM13.1667 11.5295C13.1667 11.069 13.5398 10.696 14.0002 10.696C14.4606 10.696 14.8336 11.069 14.8336 11.5295V24.6267C14.8336 25.0871 14.4606 25.4601 14.0002 25.4601C13.5397 25.4601 13.1667 25.0871 13.1667 24.6267V11.5295ZM8.41341 10.6974C8.87295 10.6695 9.26785 11.0197 9.29574 11.4792L10.0892 24.5764C10.1171 25.036 9.76687 25.4304 9.30739 25.4583C8.84785 25.4861 8.45295 25.1364 8.42506 24.6769L7.6316 11.5796C7.60366 11.1202 7.95387 10.7253 8.41341 10.6974Z" fill="#EF5D39"/>
</svg>
