<svg width="25" height="25" viewBox="0 0 25 25" fill="none" xmlns="http://www.w3.org/2000/svg">
<path fill-rule="evenodd" clip-rule="evenodd" d="M18.9291 1.0415C19.4816 1.0415 20.0115 1.26099 20.4022 1.6517L23.3484 4.59797C23.7392 4.98868 23.9587 5.51858 23.9587 6.07112V20.8332C23.9587 22.5591 22.5596 23.9582 20.8337 23.9582H4.16699C2.44111 23.9582 1.04199 22.5591 1.04199 20.8332V4.1665C1.04199 2.44062 2.44111 1.0415 4.16699 1.0415H18.9291ZM4.16699 3.12484C3.5917 3.12484 3.12533 3.59121 3.12533 4.1665V20.8332C3.12533 21.4085 3.5917 21.8748 4.16699 21.8748H5.20866V15.6248C5.20866 13.8989 6.60777 12.4998 8.33366 12.4998H16.667C18.3929 12.4998 19.792 13.8989 19.792 15.6248V21.8748H20.8337C21.409 21.8748 21.8753 21.4085 21.8753 20.8332V7.11279C21.8753 6.56024 21.6558 6.03035 21.2651 5.63964L19.3605 3.73503C18.9698 3.34433 18.4399 3.12484 17.8874 3.12484H17.7087V5.20817C17.7087 6.93406 16.3096 8.33317 14.5837 8.33317H10.417C8.69111 8.33317 7.29199 6.93406 7.29199 5.20817V3.12484H4.16699ZM17.7087 21.8748V15.6248C17.7087 15.0495 17.2423 14.5832 16.667 14.5832H8.33366C7.75837 14.5832 7.29199 15.0495 7.29199 15.6248V21.8748H17.7087ZM9.37533 3.12484H15.6253V5.20817C15.6253 5.78346 15.159 6.24984 14.5837 6.24984H10.417C9.8417 6.24984 9.37533 5.78346 9.37533 5.20817V3.12484Z" fill="white"/>
</svg>
