<svg width="25" height="25" viewBox="0 0 25 25" fill="none" xmlns="http://www.w3.org/2000/svg">
<g clip-path="url(#clip0_14_91)">
<path fill-rule="evenodd" clip-rule="evenodd" d="M12.4999 16.6667C10.2174 16.6667 8.36824 14.8017 8.36824 12.5C8.36824 10.1983 10.2174 8.33333 12.4999 8.33333C14.7824 8.33333 16.6324 10.1983 16.6324 12.5C16.6324 14.8017 14.7824 16.6667 12.4999 16.6667ZM24.1732 15.4467L22.2374 14.32C22.3457 13.7283 22.4174 13.1242 22.4174 12.5C22.4174 11.8767 22.3457 11.2717 22.2374 10.68L24.1732 9.55332C24.9641 9.09332 25.2341 8.07333 24.7774 7.27666L23.1249 4.39C22.6691 3.59334 21.6574 3.31918 20.8674 3.78001L18.9116 4.9175C17.9982 4.13417 16.9599 3.49333 15.8057 3.08083V1.66667C15.8057 0.746667 15.0657 0 14.1524 0H10.8474C9.93407 0 9.19407 0.746667 9.19407 1.66667V3.08083C8.0399 3.49333 7.00157 4.13417 6.08824 4.9175L4.1324 3.78001C3.3424 3.31918 2.33074 3.59334 1.8749 4.39L0.222402 7.27666C-0.234265 8.07333 0.0365673 9.09332 0.826567 9.55332L2.76241 10.68C2.65407 11.2717 2.5824 11.8767 2.5824 12.5C2.5824 13.1242 2.65407 13.7283 2.76241 14.32L0.826567 15.4467C0.0365673 15.9067 -0.234265 16.9267 0.222402 17.7233L1.8749 20.61C2.33074 21.4067 3.3424 21.6808 4.1324 21.22L6.08824 20.0825C7.00157 20.8658 8.0399 21.5075 9.19407 21.9192V23.3333C9.19407 24.2533 9.93407 25 10.8474 25H14.1524C15.0657 25 15.8057 24.2533 15.8057 23.3333V21.9192C16.9599 21.5075 17.9982 20.8658 18.9116 20.0825L20.8674 21.22C21.6574 21.6808 22.6691 21.4067 23.1249 20.61L24.7774 17.7233C25.2341 16.9267 24.9641 15.9067 24.1732 15.4467ZM12.4999 10C11.1307 10 10.0207 11.12 10.0207 12.5C10.0207 13.8808 11.1307 15 12.4999 15C13.8691 15 14.9791 13.8808 14.9791 12.5C14.9791 11.12 13.8691 10 12.4999 10Z" fill="white"/>
</g>
<defs>
<clipPath id="clip0_14_91">
<rect width="25" height="25" fill="white"/>
</clipPath>
</defs>
</svg>
