<svg width="28" height="28" viewBox="0 0 28 28" fill="none" xmlns="http://www.w3.org/2000/svg">
<g clip-path="url(#clip0_226_5)">
<path d="M11.3587 -0.0148315V1.99411L9.41539 1.99481V-0.0145453H7.66539V1.99494H5.77539V1.99193H4.02539V1.99494V3.74494V6.89494V8.64494V26.2649V28.0149H5.77539H22.2254H23.8504H23.9754V16.0049V1.99194L20.3887 1.99264V-0.0147974H18.6387V1.99291L16.6954 1.99361V-0.0145111H14.9454V1.99389H13.1087V-0.0147845L11.3587 -0.0148315ZM5.77539 3.7452H7.66539V5.23531H9.41539V3.7452H11.3587V5.23531H13.1087V3.7452H14.9454V5.23531H16.6954V3.7452H18.6387V5.23531H20.3887V3.7452H22.2254V6.8952H5.77539V3.7452ZM5.77539 8.6452H22.2254V16.4952V26.2651H5.77539V8.6452ZM7.55725 10.7628V12.5128H9.69977V10.7628H7.55725ZM11.4498 10.7628V12.5128H20.3771V10.7628H11.4498ZM7.55725 14.8228V16.5728H9.69977V14.8228H7.55725ZM11.4498 14.8228V16.5728H20.3739V14.8228H11.4498ZM7.55725 18.8828V20.6328H9.69977V18.8828H7.55725ZM11.4498 18.8828V20.6328H20.3455V18.8828H11.4498ZM7.55725 22.8028V24.5528H9.69977V22.8028H7.55725ZM11.4498 22.8028V24.5528H20.3753V22.8028H11.4498Z" fill="white"/>
</g>
<defs>
<clipPath id="clip0_226_5">
<rect width="28" height="28" fill="white"/>
</clipPath>
</defs>
</svg>
