<svg width="28" height="28" viewBox="0 0 28 28" fill="none" xmlns="http://www.w3.org/2000/svg">
<g clip-path="url(#clip0_14_52)">
<path d="M23.8411 15.724C25.619 15.724 27.0606 14.2834 27.0606 12.5055C27.0606 10.7276 25.619 9.28598 23.8411 9.28598C22.0637 9.28598 20.6221 10.7276 20.6221 12.5055C20.6221 14.2834 22.0637 15.724 23.8411 15.724Z" fill="white"/>
<path d="M27.963 18.8262C27.8196 17.9642 27.1071 16.7578 26.5677 16.2189C26.4967 16.1475 26.1792 16.131 26.0934 16.1841C25.4377 16.5874 24.6675 16.8247 23.8408 16.8247C23.0151 16.8247 22.2448 16.5874 21.5891 16.1841C21.5029 16.131 21.1859 16.1475 21.1148 16.2189C20.9641 16.3697 20.7996 16.5704 20.6392 16.8031C21.0731 17.6201 21.4173 18.488 21.5414 19.2354C21.6656 19.9846 21.6253 20.6939 21.4245 21.3405C22.1375 21.5985 22.9926 21.7117 23.8408 21.7117C26.0532 21.7117 28.3172 20.9446 27.963 18.8262Z" fill="white"/>
<path d="M13.9172 14.3659C16.7985 14.3659 19.1345 12.0299 19.1345 9.14861C19.1345 6.26822 16.7985 3.93219 13.9172 3.93219C11.0363 3.93219 8.70117 6.26822 8.70117 9.14861C8.70117 12.0299 11.0363 14.3659 13.9172 14.3659Z" fill="white"/>
<path d="M18.3349 15.165C18.2217 15.0523 17.7076 15.0235 17.5678 15.11C16.5042 15.7644 15.2561 16.1475 13.9171 16.1475C12.5791 16.1475 11.3304 15.7644 10.2674 15.11C10.1276 15.0234 9.61353 15.0523 9.50033 15.165C8.62418 16.0402 7.46945 17.9968 7.23714 19.3917C6.66434 22.8275 10.3343 24.0679 13.9171 24.0679C17.5009 24.0679 21.1708 22.8275 20.598 19.3917C20.3657 17.9968 19.211 16.0402 18.3349 15.165Z" fill="white"/>
<path d="M4.15896 15.724C5.93641 15.724 7.37798 14.2834 7.37798 12.5055C7.37798 10.7276 5.93641 9.28598 4.15896 9.28598C2.38102 9.28598 0.939453 10.7276 0.939453 12.5055C0.939453 14.2834 2.38102 15.724 4.15896 15.724Z" fill="white"/>
<path d="M6.29423 19.2354C6.42624 18.4505 6.79872 17.5262 7.2657 16.6716C7.13554 16.4939 7.00544 16.339 6.88535 16.2189C6.81431 16.1475 6.49723 16.131 6.4111 16.1841C5.75534 16.5874 4.98506 16.8247 4.15896 16.8247C3.33274 16.8247 2.56197 16.5874 1.90676 16.1841C1.82101 16.131 1.50306 16.1475 1.43202 16.2189C0.891323 16.7578 0.180659 17.9642 0.0367214 18.8262C-0.316997 20.9446 1.94663 21.7116 4.15896 21.7116C4.94848 21.7116 5.74577 21.6145 6.42624 21.3923C6.21181 20.7325 6.16642 20.0066 6.29423 19.2354Z" fill="white"/>
</g>
<defs>
<clipPath id="clip0_14_52">
<rect width="28" height="28" fill="white"/>
</clipPath>
</defs>
</svg>
